<?xml version="1.0" standalone="no"?>
<!DOCTYPE svg PUBLIC "-//W3C//DTD SVG 1.1//EN" "http://www.w3.org/Graphics/SVG/1.1/DTD/svg11.dtd" >
<svg>
<metadata>
Created by FontForge 20090914 at Tue Mar  3 18:28:17 2015
 By www-data
1997-98 by Dubina Nikolay D-Studio 'Moscow'  and Ray Larabie
</metadata>
<defs>
<font id="DSArmyCyr" horiz-adv-x="484" >
  <font-face 
    font-family="DS Army Cyr"
    font-weight="400"
    font-stretch="normal"
    units-per-em="1000"
    panose-1="2 11 7 6 2 2 7 5 2 4"
    ascent="800"
    descent="-200"
    x-height="594"
    cap-height="594"
    bbox="29.9971 -191 943 710"
    underline-thickness="20"
    underline-position="-123"
    unicode-range="U+0020-U+F101"
  />
<missing-glyph horiz-adv-x="521" 
d="M40 0v585h441v-585h-441zM80 40h361v505h-361v-505z" />
    <glyph glyph-name=".notdef" horiz-adv-x="521" 
d="M40 0v585h441v-585h-441zM80 40h361v505h-361v-505z" />
    <glyph glyph-name="space" unicode=" " horiz-adv-x="500" 
 />
    <glyph glyph-name="exclam" unicode="!" horiz-adv-x="204" 
d="M174 595v-392h-144v392h144zM174 91v-91h-144v91h144z" />
    <glyph glyph-name="quotedbl" unicode="&#x22;" horiz-adv-x="414" 
d="M384 633v-120.001c0 -17.333 -3 -28.166 -9 -32.499s-18.333 -6.5 -37 -6.5h-62v39h39v30h-75v90h144zM174 632.999v-120.001c0 -17.333 -3 -28.166 -9 -32.499s-18.333 -6.5 -37 -6.5h-62v39h39v30h-75v90h144z" />
    <glyph glyph-name="numbersign" unicode="#" horiz-adv-x="764" 
d="M734 229v-55h-140v-88h-144v88h-47v55h47v238h-47v55h47v88h144v-88h140v-55h-140v-238h140zM314 522h41v-55h-41v-238h41v-55h-41v-88h-144v88h-140v55h140v238h-140v55h140v88h144v-88z" />
    <glyph glyph-name="dollar" unicode="$" 
d="M314 710v-84h-117v84h117zM454 588v-61h-280v-201h38v-60h-55c-32 0 -61.167 4.5 -87.5 13.5s-39.5 24.167 -39.5 45.5v203c0 40 55.667 60 167 60h257zM454 267v-203c0 -42.667 -55.667 -64 -167 -64h-257v65h280v201h-42v60h59c49.333 0 80 -1.66699 92 -5
c23.333 -7.33301 35 -25.333 35 -54zM287 -43v-75h-117v75h117z" />
    <glyph glyph-name="percent" unicode="%" horiz-adv-x="973" 
d="M943 193v-153.001c0 -26.667 -19.333 -40 -58 -40h-131v60h45v118h-45v60h131c20.667 0 35.5 -2.66699 44.5 -8s13.5 -17.666 13.5 -36.999zM463 548.999v-152.999c0 -26.667 -19.333 -40 -58 -40h-131v60h45v118h-45v60h131c20.667 0 35.5 -2.83301 44.5 -8.5
s13.5 -17.834 13.5 -36.501zM694 594h155l-570 -594h-155zM699 238v-60.001h-46v-118h46v-60h-132c-38.667 0 -58 13.333 -58 40v153c0 18.667 4.5 30.834 13.5 36.501s23.833 8.5 44.5 8.5h132zM219 593.999v-60h-45v-118h45v-60h-132c-38 0 -57 13.333 -57 40v153
c0 30 19 45 57 45h132z" />
    <glyph glyph-name="ampersand" unicode="&#x26;" horiz-adv-x="540" 
d="M317 594v-60h-61v60h61zM454 416v-60h-198v60h198zM510 60v-60h-254v60h54v178h144v-178h56zM212 60v-60h-56c-14 0 -28.333 1.16699 -43 3.5s-28.167 6 -40.5 11s-22.5 11.167 -30.5 18.5s-12 16.333 -12 27v474c0 40 42 60 126 60h56v-60h-38v-118h38v-60h-38v-296h38z
" />
    <glyph glyph-name="quoteright" unicode="'" horiz-adv-x="204" 
d="M174 633v-120.001c0 -17.333 -3 -28.166 -9 -32.499s-18.333 -6.5 -37 -6.5h-62v39h39v30h-75v90h144z" />
    <glyph glyph-name="parenleft" unicode="(" horiz-adv-x="344" 
d="M314 60v-60.001h-158c-41.333 0 -69.333 2.33301 -84 7c-28 8 -42 25.667 -42 53v474c0 12.667 3.5 22.834 10.5 30.501s16.333 13.667 28 18s25 7.33301 40 9s30.833 2.5 47.5 2.5h158v-60h-140v-474h140z" />
    <glyph glyph-name="parenright" unicode=")" horiz-adv-x="344" 
d="M314 534v-474c0 -10.667 -4.83301 -19.667 -14.5 -27s-21.334 -13.5 -35.001 -18.5s-27.667 -8.66699 -42 -11s-26.166 -3.5 -35.499 -3.5h-157v60h140v474h-140v60h157c46 0 75 -1.66699 87 -5c26.667 -8 40 -26.333 40 -55z" />
    <glyph glyph-name="asterisk" unicode="*" horiz-adv-x="249" 
d="M149 428l70 15l-46 -67l46 -66l-70 15l-25 -81l-24 81l-70 -15l45 66l-45 67l70 -15l24 81z" />
    <glyph glyph-name="plus" unicode="+" 
d="M454 325v-54h-140v-100h-144v100h-140v54h140v100h144v-100h140z" />
    <glyph glyph-name="comma" unicode="," horiz-adv-x="204" 
d="M174 91v-121c0 -17.333 -3 -28 -9 -32s-18.333 -6 -37 -6h-62v38h39v30h-75v91h144z" />
    <glyph glyph-name="hyphen" unicode="-" horiz-adv-x="518" 
d="M488 358v-66h-458v66h458z" />
    <glyph glyph-name="period" unicode="." horiz-adv-x="164" 
d="M134 92v-92h-104v92h104z" />
    <glyph glyph-name="slash" unicode="/" horiz-adv-x="747" 
d="M564 594h153l-533 -594h-154z" />
    <glyph glyph-name="zero" unicode="0" 
d="M454 534v-474c0 -13.333 -3.5 -24 -10.5 -32s-16.333 -14 -28 -18s-25.167 -6.66699 -40.5 -8s-31.333 -2 -48 -2h-64v60h47v474h-47v60h64c44 0 74 -2.66699 90 -8c24.667 -8.66699 37 -26 37 -52zM221 60l0.00195312 -60h-65c-84 0 -126 20 -126 60v474
c0 14 3.16699 25 9.5 33s15.166 14 26.499 18s24.666 6.5 39.999 7.5s32 1.5 50 1.5h65v-58h-47v-476h47z" />
    <glyph glyph-name="one" unicode="1" horiz-adv-x="274" 
d="M244 534v-534h-144v534h-70v60h87c84.667 0 127 -20 127 -60z" />
    <glyph glyph-name="two" unicode="2" 
d="M454 521v-185.001c-10 -21.333 -27.333 -38 -52 -50s-49.667 -18 -75 -18h-56v58h39v208h-38v60h52c34 -6.66699 59 -13.667 75 -21c24 -11.333 42.333 -28.666 55 -51.999zM210 593.999v-60h-114v60h114zM454 59.999v-60h-184v60h184zM209 325.999v-58h-35v-208h35v-60
h-179v256c13.333 28 30 46.667 50 56s45.667 14 77 14h52z" />
    <glyph glyph-name="three" unicode="3" horiz-adv-x="401" 
d="M145 594v-60h-115v60h115zM371 242l0.000976562 -182.002c0 -9.33301 -3.66699 -17.666 -11 -24.999s-17 -13.666 -29 -18.999s-25.5 -9.33301 -40.5 -12s-30.5 -4 -46.5 -4h-53v60h36v208h-36v58h36v208h-36v60h53c44 0 74.333 -3 91 -9c24 -8 36 -25 36 -51v-198
c0 -10 -4.5 -19.5 -13.5 -28.5s-18.5 -13.833 -28.5 -14.5c9.33301 -2.66699 18.666 -9.5 27.999 -20.5s14 -21.167 14 -30.5zM87.001 325.998h58v-58h-58v58zM30.001 59.998h115v-60h-115v60z" />
    <glyph glyph-name="four" unicode="4" horiz-adv-x="554" 
d="M524 326v-58h-70v-268h-144v268h-32v58h32v90h144v-90h70zM230 326v-58h-73c-32.667 0 -62 4.33301 -88 13s-39 23.667 -39 45v268h144v-268h56z" />
    <glyph glyph-name="five" unicode="5" 
d="M454 594v-60h-188v60h188zM174 326h46v-58h-64c-84 0 -126 19.333 -126 58v268h190v-60h-46v-208zM327 0l-61 -0.000976562v60h44v208h-44v58h188v-266c0 -9.33301 -4.66699 -17.666 -14 -24.999s-20.833 -13.5 -34.5 -18.5s-27.667 -9 -42 -12s-26.5 -4.5 -36.5 -4.5z
M30 59.999h190v-60h-190v60z" />
    <glyph glyph-name="six" unicode="6" 
d="M368 594v-60h-105v60h105zM454 268l-0.000976562 -208.002c0 -9.33301 -4.66699 -17.666 -14 -24.999s-20.666 -13.666 -33.999 -18.999s-27.333 -9.33301 -42 -12s-27 -4 -37 -4h-64v60h47v208h-47v58h64c48 0 79 -2.33301 93 -7c22.667 -6.66699 34 -23.667 34 -51z
M217.999 59.998l-0.00195312 -60.001h-62c-84 0 -126 20 -126 60v474c0 11.333 4.16699 20.833 12.5 28.5s18.833 13.834 31.5 18.501s26.334 8 41.001 10s28.334 3 41.001 3h62v-60h-44v-208h44v-58h-44v-208h44z" />
    <glyph glyph-name="seven" unicode="7" horiz-adv-x="475" 
d="M30 594h204l-25 -60h-179v60zM285 594h160l-253 -594h-154z" />
    <glyph glyph-name="eight" unicode="8" 
d="M454 268l0.000976562 -208c0 -14.667 -3 -26 -9 -34s-14.5 -14 -25.5 -18s-24.333 -6.33301 -40 -7s-32.834 -1 -51.501 -1h-62v60h44v208h-44v58h44v208h-44v60h62c46 0 75.667 -2.33301 89 -7c24.667 -8 37 -25.667 37 -53v-208l-46 -28c30.667 0 46 -10 46 -30z
M174.001 60l45.001 0.000976562v-60h-62c-84.667 0 -127 20 -127 60v190c0 32 17 48 51 48l-51 28v208c0 27.333 10.667 44.166 32 50.499s47.666 9.5 78.999 9.5h78v-60h-45v-208h45v-58h-45v-208z" />
    <glyph glyph-name="nine" unicode="9" 
d="M454 534v-474c0 -40 -42.333 -60 -127 -60h-64v60h47v208h-47v58h47v207h-47v61h64c42.667 0 73 -2.66699 91 -8c24 -8 36 -25.333 36 -52zM219 326v-58h-63c-10 0 -22.333 1.16699 -37 3.5s-28.5 6 -41.5 11s-24.167 11 -33.5 18s-14 15.5 -14 25.5v208
c0 40 42 60 126 60h63v-61h-45v-207h45zM219 60v-60h-104v60h104z" />
    <glyph glyph-name="colon" unicode=":" horiz-adv-x="164" 
d="M134 353v-92h-104v92h104zM134 92v-92h-104v92h104z" />
    <glyph glyph-name="semicolon" unicode=";" horiz-adv-x="204" 
d="M163 353v-92h-104v92h104zM174 91v-121c0 -17.333 -3 -28 -9 -32s-18.333 -6 -37 -6h-62v38h39v30h-75v91h144z" />
    <glyph glyph-name="less" unicode="&#x3c;" horiz-adv-x="319" 
d="M289 242v-62l-259 168l259 168v-62l-164 -106z" />
    <glyph glyph-name="equal" unicode="=" 
d="M454 455v-50h-424v50h424zM454 191v-50h-424v50h424z" />
    <glyph glyph-name="greater" unicode="&#x3e;" horiz-adv-x="320" 
d="M30 516l260 -168l-260 -168v62l165 106l-165 106v62z" />
    <glyph glyph-name="question" unicode="?" 
d="M454 534l-0.00195312 -207.999c0 -38.667 -42 -58 -126 -58h-61v58h43v208h-43v60h61c12 0 25.333 -1 40 -3s28.334 -5.33301 41.001 -10s23.334 -10.834 32.001 -18.501s13 -17.167 13 -28.5zM29.998 594.001h186v-60h-186v60zM215.998 326.001v-58h-42v-66h-144v124
h186zM173.998 91.001v-91h-144v91h144z" />
    <glyph glyph-name="at" unicode="@" horiz-adv-x="624" 
d="M560 534v-371.999c0 -25.333 -25.333 -38 -76 -38h-61v65h43v238h-43v46h43v61h-43v60h61c19.333 0 36.833 -5.33301 52.5 -16s23.5 -25.334 23.5 -44.001zM110 60.001h484v-60h-501c-42 0 -63 19.667 -63 59v476c0 39.333 21 59 63 59h274v-60h-257v-474zM367 189.001
v-65h-124c-6 0 -13 1 -21 3s-15.5 4.66699 -22.5 8s-12.833 7.33301 -17.5 12s-7 9.66699 -7 15v311h192v-46h-129v-238h129z" />
    <glyph glyph-name="A" unicode="A" 
d="M454 540v-540h-144v268h-41v61h41v210h-41v55h58c84.667 0 127 -18 127 -54zM174 329h46v-61h-46v-268h-144v540c0 36 42.333 54 127 54h63v-55h-46v-210z" />
    <glyph glyph-name="B" unicode="B" 
d="M454 248v-188c0 -40 -43 -60 -129 -60h-57v60h42v216h-42v51h42v208h-42v60h60c84 0 126 -20 126 -60v-208l-40 -30c12 0 21.667 -5 29 -15s11 -21.333 11 -34zM214 60v-60h-184v595h184v-60h-40v-208h40v-51h-40v-216h40z" />
    <glyph glyph-name="C" unicode="C" horiz-adv-x="394" 
d="M364 594v-60h-90v60h90zM218 60v-60h-61c-84.667 0 -127 20 -127 60v474c0 40 42.333 60 127 60h61v-60h-44v-474h44zM364 60v-60h-90v60h90z" />
    <glyph glyph-name="D" unicode="D" 
d="M454 534l-0.00195312 -474c0 -9.33301 -4.66699 -17.833 -14 -25.5s-20.666 -14 -33.999 -19s-27.166 -8.83301 -41.499 -11.5s-26.833 -4 -37.5 -4h-62v60h45v474h-45v60h62c84.667 0 127 -20 127 -60zM173.998 60h43v-60h-187v594h187v-60h-43v-474z" />
    <glyph glyph-name="E" unicode="E" horiz-adv-x="444" 
d="M414 594v-60h-146v60h146zM321 326v-58h-53v58h53zM217 594v-60h-43v-208h43v-58h-43v-208h43v-60h-187v594h187zM414 60v-60h-146v60h146z" />
    <glyph glyph-name="F" unicode="F" horiz-adv-x="470" 
d="M440 594v-60h-173v60h173zM323 326v-58h-56v58h56zM214 594v-60h-40v-208h40v-58h-40v-268h-144v594h184z" />
    <glyph glyph-name="G" unicode="G" 
d="M454 594v-60h-180v60h180zM454 326v-326h-180v60h36v266h144zM223 594v-59.999h-49v-474h45v-60h-63c-38.667 0 -65.667 1.66699 -81 5c-30 7.33301 -45 25.666 -45 54.999v474c0 14 3.5 25 10.5 33s16.333 14 28 18s25 6.5 40 7.5s30.833 1.5 47.5 1.5h67z" />
    <glyph glyph-name="H" unicode="H" 
d="M454 594v-594h-144v268h-39v58h39v268h144zM217 326v-58h-43v-268h-144v594h144v-268h43z" />
    <glyph glyph-name="I" unicode="I" horiz-adv-x="204" 
d="M174 594v-594h-144v594h144z" />
    <glyph glyph-name="J" unicode="J" horiz-adv-x="347" 
d="M317 594v-534c0 -40 -42.333 -60 -127 -60h-47v60h30v534h144zM30 60h69v-60h-69v60z" />
    <glyph glyph-name="K" unicode="K" horiz-adv-x="499" 
d="M306 594h157l-433 -542v196zM174 594v-105l-144 -176v281h144zM291 310l178 -310h-163l-112 195zM30 0l144 171v-171h-144z" />
    <glyph glyph-name="L" unicode="L" horiz-adv-x="389" 
d="M212 60v-60h-182v594h145v-534h37zM359 60v-60h-99v60h99z" />
    <glyph glyph-name="M" unicode="M" horiz-adv-x="764" 
d="M734 594v-594h-144v305l96 289h48zM503 594h140l-165 -530l-77 208zM248 594l210 -594h-151l-110 357c-4.66699 16.667 -14 44.667 -28 84l-53 153h132zM174 290v-290h-144v594h46z" />
    <glyph glyph-name="N" unicode="N" 
d="M454 594v-437l-144 270v167h144zM454 60v-60h-148l-276 594h148zM174 192v-192h-144v490z" />
    <glyph glyph-name="O" unicode="O" 
d="M454 534v-474c0 -13.333 -3.5 -24 -10.5 -32s-16.333 -14 -28 -18s-25.167 -6.66699 -40.5 -8s-31.333 -2 -48 -2h-64v60h47v474h-47v60h64c44 0 74 -2.66699 90 -8c24.667 -8.66699 37 -26 37 -52zM221 60l0.00195312 -60h-65c-84 0 -126 20 -126 60v474
c0 14 3.16699 25 9.5 33s15.166 14 26.499 18s24.666 6.5 39.999 7.5s32 1.5 50 1.5h65v-58h-47v-476h47z" />
    <glyph glyph-name="P" unicode="P" 
d="M454 534l0.000976562 -208c0 -9.33301 -4.66699 -17.5 -14 -24.5s-20.833 -13 -34.5 -18s-27.667 -8.83301 -42 -11.5s-26.5 -4 -36.5 -4h-66v58h49v208h-49v60h66c47.333 0 77.666 -2.33301 90.999 -7c24 -8 36 -25.667 36 -53zM174.001 326h39v-58h-39v-268h-144v594
h183v-59h-39v-209z" />
    <glyph glyph-name="Q" unicode="Q" horiz-adv-x="540" 
d="M510 60v-60h-248v60h48v474h-48v60h65c43.333 0 73.333 -3 90 -9c24.667 -8.66699 37 -25.667 37 -51v-474h56zM156 594h65v-60h-47v-474h47v-60h-65c-84 0 -126 20 -126 60v474c0 13.333 3.5 24 10.5 32s16.333 14 28 18s25 6.66699 40 8s30.833 2 47.5 2z" />
    <glyph glyph-name="R" unicode="R" 
d="M454 534v-208c0 -25.333 -54 -38 -162 -38h-118v-288h-144v594h188v-60h-44v-208h136v208h-52v60h70c84 0 126 -20 126 -60zM340 252l103 -252h-137l-103 252h137z" />
    <glyph glyph-name="S" unicode="S" 
d="M434 594v-60h-173v60h173zM217 594v-60h-43v-208h43v-58h-60c-84.667 0 -127 19.333 -127 58v208c0 14 3.5 25 10.5 33s16.5 14 28.5 18s25.667 6.5 41 7.5s31 1.5 47 1.5h60zM454 268v-208c0 -40 -42 -60 -126 -60h-67v60h49v208h-49v58h67c84 0 126 -19.333 126 -58z
M217 60v-60h-169v60h169z" />
    <glyph glyph-name="T" unicode="T" horiz-adv-x="403" 
d="M310 594h63v-60h-63v60zM30 594h63v-60h-63v60zM130 594h144v-594h-144v594z" />
    <glyph glyph-name="U" unicode="U" 
d="M310 594h144v-534c0 -40 -42 -60 -126 -60h-62v60h44v534zM216 60v-60h-59c-10 -0 -22.167 1.33301 -36.5 4s-28.333 6.5 -42 11.5s-25.167 11.167 -34.5 18.5s-14 16 -14 26v534h144v-534h42z" />
    <glyph glyph-name="V" unicode="V" horiz-adv-x="476" 
d="M260 384l44 210h142l-112 -497zM173 594l129 -594h-138l-134 594h143z" />
    <glyph glyph-name="W" unicode="W" horiz-adv-x="764" 
d="M590 594l143.999 0.000976562v-534c0 -10.667 -3.33301 -19.834 -10 -27.501s-15 -14 -25 -19s-21.167 -8.5 -33.5 -10.5s-24.166 -3 -35.499 -3h-80v60h40v534zM503.999 60.001v-60h-233v60h39v534h144v-534h50zM173.999 60.001h52v-60h-69c-42 0 -70 2 -84 6
c-28.667 8 -43 26 -43 54v534h144v-534z" />
    <glyph glyph-name="X" unicode="X" horiz-adv-x="468" 
d="M434 594l-111 -218l-66 140l41 78h136zM170 594l268 -594h-140l-265 594h137zM134 265l73 -165l-38 -100h-139z" />
    <glyph glyph-name="Y" unicode="Y" 
d="M454 594v-534c0 -40 -42 -60 -126 -60h-56v60h38v208h-42v58h42v268h144zM174 326h40.999v-58h-58c-10 0 -22.333 1.16699 -37 3.5s-28.667 6 -42 11s-24.666 11 -33.999 18s-14 15.5 -14 25.5v268h144v-268zM29.999 60h198v-60h-198v60z" />
    <glyph glyph-name="Z" unicode="Z" 
d="M30 594h183l-20 -60h-163v60zM269 594h173l-249 -594h-155zM454 60v-60h-210l24 60h186z" />
    <glyph glyph-name="bracketleft" unicode="[" horiz-adv-x="344" 
d="M314 60v-60.001h-158c-41.333 0 -69.333 2.33301 -84 7c-28 8 -42 25.667 -42 53v474c0 12.667 3.5 22.834 10.5 30.501s16.333 13.667 28 18s25 7.33301 40 9s30.833 2.5 47.5 2.5h158v-60h-140v-474h140z" />
    <glyph glyph-name="backslash" unicode="\" horiz-adv-x="747" 
d="M184 594l533 -594h-153l-534 594h154z" />
    <glyph glyph-name="bracketright" unicode="]" horiz-adv-x="344" 
d="M314 534v-474c0 -10.667 -4.83301 -19.667 -14.5 -27s-21.334 -13.5 -35.001 -18.5s-27.667 -8.66699 -42 -11s-26.166 -3.5 -35.499 -3.5h-157v60h140v474h-140v60h157c46 0 75 -1.66699 87 -5c26.667 -8 40 -26.333 40 -55z" />
    <glyph glyph-name="quoteleft" unicode="`" horiz-adv-x="199" 
d="M124 614l45 -143h-14l-125 143h94z" />
    <glyph glyph-name="a" unicode="a" 
d="M454 540v-540h-144v268h-41v61h41v210h-41v55h58c84.667 0 127 -18 127 -54zM174 329h46v-61h-46v-268h-144v540c0 36 42.333 54 127 54h63v-55h-46v-210z" />
    <glyph glyph-name="b" unicode="b" 
d="M454 248v-188c0 -40 -43 -60 -129 -60h-57v60h42v216h-42v51h42v208h-42v60h60c84 0 126 -20 126 -60v-208l-42 -30c12 0 22 -5 30 -15s12 -21.333 12 -34zM214 60v-60h-184v595h184v-60h-40v-208h40v-51h-40v-216h40z" />
    <glyph glyph-name="c" unicode="c" horiz-adv-x="394" 
d="M364 594v-60h-90v60h90zM218 60v-60h-61c-84.667 0 -127 20 -127 60v474c0 40 42.333 60 127 60h61v-60h-44v-474h44zM364 60v-60h-90v60h90z" />
    <glyph glyph-name="d" unicode="d" 
d="M454 534l-0.00195312 -474c0 -9.33301 -4.66699 -17.833 -14 -25.5s-20.666 -14 -33.999 -19s-27.166 -8.83301 -41.499 -11.5s-26.833 -4 -37.5 -4h-62v60h45v474h-45v60h62c84.667 0 127 -20 127 -60zM173.998 60h43v-60h-187v594h187v-60h-43v-474z" />
    <glyph glyph-name="e" unicode="e" horiz-adv-x="444" 
d="M414 594v-60h-146v60h146zM321 326v-58h-53v58h53zM217 594v-60h-43v-208h43v-58h-43v-208h43v-60h-187v594h187zM414 60v-60h-146v60h146z" />
    <glyph glyph-name="f" unicode="f" horiz-adv-x="470" 
d="M440 594v-60h-173v60h173zM323 326v-58h-56v58h56zM214 594v-60h-40v-208h40v-58h-40v-268h-144v594h184z" />
    <glyph glyph-name="g" unicode="g" 
d="M454 594v-60h-180v60h180zM454 326v-326h-180v60h36v266h144zM223 594v-59.999h-49v-474h45v-60h-63c-38.667 0 -65.667 1.66699 -81 5c-30 7.33301 -45 25.666 -45 54.999v474c0 14 3.5 25 10.5 33s16.333 14 28 18s25 6.5 40 7.5s30.833 1.5 47.5 1.5h67z" />
    <glyph glyph-name="h" unicode="h" 
d="M454 594v-594h-144v268h-39v58h39v268h144zM217 326v-58h-43v-268h-144v594h144v-268h43z" />
    <glyph glyph-name="i" unicode="i" horiz-adv-x="204" 
d="M174 594v-594h-144v594h144z" />
    <glyph glyph-name="j" unicode="j" horiz-adv-x="347" 
d="M317 594v-534c0 -40 -42.333 -60 -127 -60h-47v60h30v534h144zM30 60h69v-60h-69v60z" />
    <glyph glyph-name="k" unicode="k" horiz-adv-x="499" 
d="M306 594h157l-433 -542v196zM174 594v-105l-144 -176v281h144zM291 310l178 -310h-163l-112 195zM30 0l144 171v-171h-144z" />
    <glyph glyph-name="l" unicode="l" horiz-adv-x="389" 
d="M212 60v-60h-182v594h145v-534h37zM359 60v-60h-99v60h99z" />
    <glyph glyph-name="m" unicode="m" horiz-adv-x="764" 
d="M734 594v-594h-144v305l96 289h48zM503 594h140l-165 -530l-77 208zM248 594l210 -594h-151l-110 357c-4.66699 16.667 -14 44.667 -28 84l-53 153h132zM174 290v-290h-144v594h46z" />
    <glyph glyph-name="n" unicode="n" 
d="M454 594v-437l-144 270v167h144zM454 60v-60h-148l-276 594h148zM174 192v-192h-144v490z" />
    <glyph glyph-name="o" unicode="o" 
d="M454 534v-474c0 -13.333 -3.5 -24 -10.5 -32s-16.333 -14 -28 -18s-25.167 -6.66699 -40.5 -8s-31.333 -2 -48 -2h-64v60h47v474h-47v60h64c44 0 74 -2.66699 90 -8c24.667 -8.66699 37 -26 37 -52zM221 60l0.00195312 -60h-65c-84 0 -126 20 -126 60v474
c0 14 3.16699 25 9.5 33s15.166 14 26.499 18s24.666 6.5 39.999 7.5s32 1.5 50 1.5h65v-58h-47v-476h47z" />
    <glyph glyph-name="p" unicode="p" 
d="M454 534l0.000976562 -208c0 -9.33301 -4.66699 -17.5 -14 -24.5s-20.833 -13 -34.5 -18s-27.667 -8.83301 -42 -11.5s-26.5 -4 -36.5 -4h-66v58h49v208h-49v60h66c47.333 0 77.666 -2.33301 90.999 -7c24 -8 36 -25.667 36 -53zM174.001 326h39v-58h-39v-268h-144v594
h183v-59h-39v-209z" />
    <glyph glyph-name="q" unicode="q" horiz-adv-x="540" 
d="M510 60v-60h-248v60h48v474h-48v60h65c43.333 0 73.333 -3 90 -9c24.667 -8.66699 37 -25.667 37 -51v-474h56zM156 594h65v-60h-47v-474h47v-60h-65c-84 0 -126 20 -126 60v474c0 13.333 3.5 24 10.5 32s16.333 14 28 18s25 6.66699 40 8s30.833 2 47.5 2z" />
    <glyph glyph-name="r" unicode="r" 
d="M454 534v-208c0 -25.333 -54 -38 -162 -38h-118v-288h-144v594h188v-60h-44v-208h136v208h-52v60h70c84 0 126 -20 126 -60zM340 252l103 -252h-137l-103 252h137z" />
    <glyph glyph-name="s" unicode="s" 
d="M434 594v-60h-173v60h173zM217 594v-60h-43v-208h43v-58h-60c-84.667 0 -127 19.333 -127 58v208c0 14 3.5 25 10.5 33s16.5 14 28.5 18s25.667 6.5 41 7.5s31 1.5 47 1.5h60zM454 268v-208c0 -40 -42 -60 -126 -60h-67v60h49v208h-49v58h67c84 0 126 -19.333 126 -58z
M217 60v-60h-169v60h169z" />
    <glyph glyph-name="t" unicode="t" horiz-adv-x="403" 
d="M310 594h63v-60h-63v60zM30 594h63v-60h-63v60zM130 594h144v-594h-144v594z" />
    <glyph glyph-name="u" unicode="u" 
d="M310 594h144v-534c0 -40 -42 -60 -126 -60h-62v60h44v534zM216 60v-60h-59c-10 -0 -22.167 1.33301 -36.5 4s-28.333 6.5 -42 11.5s-25.167 11.167 -34.5 18.5s-14 16 -14 26v534h144v-534h42z" />
    <glyph glyph-name="v" unicode="v" horiz-adv-x="476" 
d="M260 384l44 210h142l-112 -497zM173 594l129 -594h-138l-134 594h143z" />
    <glyph glyph-name="w" unicode="w" horiz-adv-x="764" 
d="M590 594h144v-534c0 -28.667 -15 -47 -45 -55c-15.333 -3.33301 -42.333 -5 -81 -5h-58v60h40v534zM504 60v-60h-233v60h39v534h144v-534h50zM174 60h52v-60h-69c-42 0 -70 2 -84 6c-28.667 8 -43 26 -43 54v534h144v-534z" />
    <glyph glyph-name="x" unicode="x" horiz-adv-x="468" 
d="M434 594l-111 -218l-66 140l41 78h136zM170 594l268 -594h-140l-265 594h137zM134 265l73 -165l-38 -100h-139z" />
    <glyph glyph-name="y" unicode="y" 
d="M454 594v-534c0 -40 -42 -60 -126 -60h-56v60h38v208h-42v58h42v268h144zM174 326h40.999v-58h-58c-10 0 -22.333 1.16699 -37 3.5s-28.667 6 -42 11s-24.666 11 -33.999 18s-14 15.5 -14 25.5v268h144v-268zM29.999 60h198v-60h-198v60z" />
    <glyph glyph-name="z" unicode="z" 
d="M30 594h183l-20 -60h-163v60zM269 594h173l-249 -594h-155zM454 60v-60h-210l24 60h186z" />
    <glyph glyph-name="braceleft" unicode="{" horiz-adv-x="344" 
d="M314 60v-60.001h-158c-41.333 0 -69.333 2.33301 -84 7c-28 8 -42 25.667 -42 53v474c0 12.667 3.5 22.834 10.5 30.501s16.333 13.667 28 18s25 7.33301 40 9s30.833 2.5 47.5 2.5h158v-60h-140v-474h140z" />
    <glyph glyph-name="bar" unicode="|" horiz-adv-x="145" 
d="M30 676h84v-867h-84v867z" />
    <glyph glyph-name="braceright" unicode="}" horiz-adv-x="344" 
d="M314 534v-474c0 -10.667 -4.83301 -19.667 -14.5 -27s-21.334 -13.5 -35.001 -18.5s-27.667 -8.66699 -42 -11s-26.166 -3.5 -35.499 -3.5h-157v60h140v474h-140v60h157c46 0 75 -1.66699 87 -5c26.667 -8 40 -26.333 40 -55z" />
    <glyph glyph-name="FLW192" unicode="&#xc0;" 
d="M454 540v-540h-144v268h-41v61h41v210h-41v55h58c84.667 0 127 -18 127 -54zM174 329h46v-61h-46v-268h-144v540c0 36 42.333 54 127 54h63v-55h-46v-210z" />
    <glyph glyph-name="FLW192" unicode="&#x410;" 
d="M454 540v-540h-144v268h-41v61h41v210h-41v55h58c84.667 0 127 -18 127 -54zM174 329h46v-61h-46v-268h-144v540c0 36 42.333 54 127 54h63v-55h-46v-210z" />
    <glyph glyph-name="FLW193" unicode="&#xc1;" 
d="M454 276v-216c0 -40 -43 -60 -129 -60h-57v60h42v216h-42v51c29.333 0 53 -0.166992 71 -0.5s30 -0.833008 36 -1.5c52.667 -6.66699 79 -23 79 -49zM268 595h186v-60h-186v60zM214 60v-60h-184v595h184v-60h-40v-208h40v-51h-40v-216h40z" />
    <glyph glyph-name="FLW193" unicode="&#x411;" 
d="M454 276v-216c0 -40 -43 -60 -129 -60h-57v60h42v216h-42v51c29.333 0 53 -0.166992 71 -0.5s30 -0.833008 36 -1.5c52.667 -6.66699 79 -23 79 -49zM268 595h186v-60h-186v60zM214 60v-60h-184v595h184v-60h-40v-208h40v-51h-40v-216h40z" />
    <glyph glyph-name="FLW194" unicode="&#xc2;" 
d="M454 248v-188c0 -40 -43 -60 -129 -60h-57v60h42v216h-42v51h42v208h-42v60h60c84 0 126 -20 126 -60v-208l-42 -30c12 0 22 -5 30 -15s12 -21.333 12 -34zM214 60v-60h-184v595h184v-60h-40v-208h40v-51h-40v-216h40z" />
    <glyph glyph-name="FLW194" unicode="&#x412;" 
d="M454 248v-188c0 -40 -43 -60 -129 -60h-57v60h42v216h-42v51h42v208h-42v60h60c84 0 126 -20 126 -60v-208l-42 -30c12 0 22 -5 30 -15s12 -21.333 12 -34zM214 60v-60h-184v595h184v-60h-40v-208h40v-51h-40v-216h40z" />
    <glyph glyph-name="FLW195" unicode="&#xc3;" horiz-adv-x="444" 
d="M414 594v-60h-146v60h146zM217 594v-60h-43v-534h-144v594h187z" />
    <glyph glyph-name="FLW195" unicode="&#x413;" horiz-adv-x="444" 
d="M414 594v-60h-146v60h146zM217 594v-60h-43v-534h-144v594h187z" />
    <glyph glyph-name="FLW196" unicode="&#xc4;" horiz-adv-x="599" 
d="M569 60v-60h-248v60h48v474h-48v60h192v-534h56zM30 0v60h59v474c0 13.333 3.5 24 10.5 32s16.333 14 28 18s25 6.66699 40 8s30.833 2 47.5 2h65v-60h-47v-474h47v-60h-250z" />
    <glyph glyph-name="FLW196" unicode="&#x414;" horiz-adv-x="599" 
d="M569 60v-60h-248v60h48v474h-48v60h192v-534h56zM30 0v60h59v474c0 13.333 3.5 24 10.5 32s16.333 14 28 18s25 6.66699 40 8s30.833 2 47.5 2h65v-60h-47v-474h47v-60h-250z" />
    <glyph glyph-name="FLW197" unicode="&#xc5;" horiz-adv-x="444" 
d="M414 594v-60h-146v60h146zM321 326v-58h-53v58h53zM217 594v-60h-43v-208h43v-58h-43v-208h43v-60h-187v594h187zM414 60v-60h-146v60h146z" />
    <glyph glyph-name="FLW197" unicode="&#x415;" horiz-adv-x="444" 
d="M414 594v-60h-146v60h146zM321 326v-58h-53v58h53zM217 594v-60h-43v-208h43v-58h-43v-208h43v-60h-187v594h187zM414 60v-60h-146v60h146z" />
    <glyph glyph-name="FLW198" unicode="&#xc6;" horiz-adv-x="788" 
d="M396 154l-359 441h156l202 -252l203 252h155zM395 407l-70 87v101h138v-106zM580 310l178 -310h-163l-112 195zM325 0v172l70 -85l68 84v-171h-138zM191 0h-161l179 309l94 -114z" />
    <glyph glyph-name="FLW198" unicode="&#x416;" horiz-adv-x="788" 
d="M396 154l-359 441h156l202 -252l203 252h155zM395 407l-70 87v101h138v-106zM580 310l178 -310h-163l-112 195zM325 0v172l70 -85l68 84v-171h-138zM191 0h-161l179 309l94 -114z" />
    <glyph glyph-name="FLW199" unicode="&#xc7;" 
d="M454 248v-188c0 -40 -43 -60 -129 -60h-57v60h42v216h-42v51h42v208h-42v60h60c84 0 126 -20 126 -60v-208l-40 -30c11.333 0 20.833 -5.16699 28.5 -15.5s11.5 -21.5 11.5 -33.5zM214 60v-60h-184v60h184zM214 276h-40v51h40v-51zM214 595v-60h-184v60h184z" />
    <glyph glyph-name="FLW199" unicode="&#x417;" 
d="M454 248v-188c0 -40 -43 -60 -129 -60h-57v60h42v216h-42v51h42v208h-42v60h60c84 0 126 -20 126 -60v-208l-40 -30c11.333 0 20.833 -5.16699 28.5 -15.5s11.5 -21.5 11.5 -33.5zM214 60v-60h-184v60h184zM214 276h-40v51h40v-51zM214 595v-60h-184v60h184z" />
    <glyph glyph-name="FLW200" unicode="&#xc8;" 
d="M174 427l-144 -270v437h144v-167zM178 0h-148v60l276 534h148zM454 0h-144v192l144 298v-490z" />
    <glyph glyph-name="FLW200" unicode="&#x418;" 
d="M174 427l-144 -270v437h144v-167zM178 0h-148v60l276 534h148zM454 0h-144v192l144 298v-490z" />
    <glyph glyph-name="FLW201" unicode="&#xc9;" 
d="M174 427l-144 -270v437h144v-167zM178 0h-148v60l276 534h148zM454 0h-144v192l144 298v-490zM206 635h85l-85 -166v166z" />
    <glyph glyph-name="FLW201" unicode="&#x419;" 
d="M174 427l-144 -270v437h144v-167zM178 0h-148v60l276 534h148zM454 0h-144v192l144 298v-490zM206 635h85l-85 -166v166z" />
    <glyph glyph-name="FLW202" unicode="&#xca;" horiz-adv-x="499" 
d="M306 594h157l-433 -542v196zM174 594v-105l-144 -176v281h144zM291 310l178 -310h-163l-112 195zM30 0l144 171v-171h-144z" />
    <glyph glyph-name="FLW202" unicode="&#x41a;" horiz-adv-x="499" 
d="M306 594h157l-433 -542v196zM174 594v-105l-144 -176v281h144zM291 310l178 -310h-163l-112 195zM30 0l144 171v-171h-144z" />
    <glyph glyph-name="FLW203" unicode="&#xcb;" horiz-adv-x="476" 
d="M216 210l-44 -210h-142l112 497zM303 0l-129 594h138l134 -594h-143z" />
    <glyph glyph-name="FLW203" unicode="&#x41b;" horiz-adv-x="476" 
d="M216 210l-44 -210h-142l112 497zM303 0l-129 594h138l134 -594h-143z" />
    <glyph glyph-name="FLW204" unicode="&#xcc;" horiz-adv-x="764" 
d="M734 594v-594h-144v305l96 289h48zM503 594h140l-165 -530l-77 208zM248 594l210 -594h-151l-110 357c-4.66699 16.667 -14 44.667 -28 84l-53 153h132zM174 290v-290h-144v594h46z" />
    <glyph glyph-name="FLW204" unicode="&#x41c;" horiz-adv-x="764" 
d="M734 594v-594h-144v305l96 289h48zM503 594h140l-165 -530l-77 208zM248 594l210 -594h-151l-110 357c-4.66699 16.667 -14 44.667 -28 84l-53 153h132zM174 290v-290h-144v594h46z" />
    <glyph glyph-name="FLW205" unicode="&#xcd;" 
d="M454 594v-594h-144v268h-39v58h39v268h144zM217 326v-58h-43v-268h-144v594h144v-268h43z" />
    <glyph glyph-name="FLW205" unicode="&#x41d;" 
d="M454 594v-594h-144v268h-39v58h39v268h144zM217 326v-58h-43v-268h-144v594h144v-268h43z" />
    <glyph glyph-name="FLW206" unicode="&#xce;" 
d="M454 534v-474c0 -13.333 -3.5 -24 -10.5 -32s-16.333 -14 -28 -18s-25.167 -6.66699 -40.5 -8s-31.333 -2 -48 -2h-64v60h47v474h-47v60h64c44 0 74 -2.66699 90 -8c24.667 -8.66699 37 -26 37 -52zM221 60l0.00195312 -60h-65c-84 0 -126 20 -126 60v474
c0 14 3.16699 25 9.5 33s15.166 14 26.499 18s24.666 6.5 39.999 7.5s32 1.5 50 1.5h65v-58h-47v-476h47z" />
    <glyph glyph-name="FLW206" unicode="&#x41e;" 
d="M454 534v-474c0 -13.333 -3.5 -24 -10.5 -32s-16.333 -14 -28 -18s-25.167 -6.66699 -40.5 -8s-31.333 -2 -48 -2h-64v60h47v474h-47v60h64c44 0 74 -2.66699 90 -8c24.667 -8.66699 37 -26 37 -52zM221 60l0.00195312 -60h-65c-84 0 -126 20 -126 60v474
c0 14 3.16699 25 9.5 33s15.166 14 26.499 18s24.666 6.5 39.999 7.5s32 1.5 50 1.5h65v-58h-47v-476h47z" />
    <glyph glyph-name="FLW207" unicode="&#xcf;" 
d="M454 594v-594h-144v534h-44v60h188zM30 594h186v-60h-42v-534h-144v594z" />
    <glyph glyph-name="FLW207" unicode="&#x41f;" 
d="M454 594v-594h-144v534h-44v60h188zM30 594h186v-60h-42v-534h-144v594z" />
    <glyph glyph-name="FLW208" unicode="&#xd0;" 
d="M454 534l0.000976562 -208c0 -9.33301 -4.66699 -17.5 -14 -24.5s-20.833 -13 -34.5 -18s-27.667 -8.83301 -42 -11.5s-26.5 -4 -36.5 -4h-66v58h49v208h-49v60h66c47.333 0 77.666 -2.33301 90.999 -7c24 -8 36 -25.667 36 -53zM174.001 326h39v-58h-39v-268h-144v594
h183v-59h-39v-209z" />
    <glyph glyph-name="FLW208" unicode="&#x420;" 
d="M454 534l0.000976562 -208c0 -9.33301 -4.66699 -17.5 -14 -24.5s-20.833 -13 -34.5 -18s-27.667 -8.83301 -42 -11.5s-26.5 -4 -36.5 -4h-66v58h49v208h-49v60h66c47.333 0 77.666 -2.33301 90.999 -7c24 -8 36 -25.667 36 -53zM174.001 326h39v-58h-39v-268h-144v594
h183v-59h-39v-209z" />
    <glyph glyph-name="FLW209" unicode="&#xd1;" horiz-adv-x="394" 
d="M364 594v-60h-90v60h90zM218 60v-60h-61c-84.667 0 -127 20 -127 60v474c0 40 42.333 60 127 60h61v-60h-44v-474h44zM364 60v-60h-90v60h90z" />
    <glyph glyph-name="FLW209" unicode="&#x421;" horiz-adv-x="394" 
d="M364 594v-60h-90v60h90zM218 60v-60h-61c-84.667 0 -127 20 -127 60v474c0 40 42.333 60 127 60h61v-60h-44v-474h44zM364 60v-60h-90v60h90z" />
    <glyph glyph-name="FLW210" unicode="&#xd2;" horiz-adv-x="403" 
d="M310 594h63v-60h-63v60zM30 594h63v-60h-63v60zM130 594h144v-594h-144v594z" />
    <glyph glyph-name="FLW210" unicode="&#x422;" horiz-adv-x="403" 
d="M310 594h63v-60h-63v60zM30 594h63v-60h-63v60zM130 594h144v-594h-144v594z" />
    <glyph glyph-name="FLW211" unicode="&#xd3;" 
d="M454 594v-534c0 -40 -42 -60 -126 -60h-56v60h38v208h-42v58h42v268h144zM174 326h40.999v-58h-58c-10 0 -22.333 1.16699 -37 3.5s-28.667 6 -42 11s-24.666 11 -33.999 18s-14 15.5 -14 25.5v268h144v-268zM29.999 60h198v-60h-198v60z" />
    <glyph glyph-name="FLW211" unicode="&#x423;" 
d="M454 594v-534c0 -40 -42 -60 -126 -60h-56v60h38v208h-42v58h42v268h144zM174 326h40.999v-58h-58c-10 0 -22.333 1.16699 -37 3.5s-28.667 6 -42 11s-24.666 11 -33.999 18s-14 15.5 -14 25.5v268h144v-268zM29.999 60h198v-60h-198v60z" />
    <glyph glyph-name="FLW212" unicode="&#xd4;" horiz-adv-x="658" 
d="M628 534l-0.000976562 -208c0 -8.66699 -4 -16.667 -12 -24s-17.5 -13.5 -28.5 -18.5s-22.667 -8.83301 -35 -11.5s-23.166 -4 -32.499 -4h-56v58h42v208h-42v60h56c42 0 68 -2.33301 78 -7c20 -8 30 -25.667 30 -53zM234.999 268v58h33v208h-33v60h188v-60h-33v-208h33
v-58h-33v-268h-122v268h-33zM29.999 326l-0.000976562 208.001c0 29.333 9 46.666 27 51.999s45 8 81 8h56v-60h-42v-208h42v-58h-56c-8.66699 0 -19.167 1.33301 -31.5 4s-24.166 6.5 -35.499 11.5s-21 11.167 -29 18.5s-12 15.333 -12 24z" />
    <glyph glyph-name="FLW212" unicode="&#x424;" horiz-adv-x="658" 
d="M628 534l-0.000976562 -208c0 -8.66699 -4 -16.667 -12 -24s-17.5 -13.5 -28.5 -18.5s-22.667 -8.83301 -35 -11.5s-23.166 -4 -32.499 -4h-56v58h42v208h-42v60h56c42 0 68 -2.33301 78 -7c20 -8 30 -25.667 30 -53zM234.999 268v58h33v208h-33v60h188v-60h-33v-208h33
v-58h-33v-268h-122v268h-33zM29.999 326l-0.000976562 208.001c0 29.333 9 46.666 27 51.999s45 8 81 8h56v-60h-42v-208h42v-58h-56c-8.66699 0 -19.167 1.33301 -31.5 4s-24.166 6.5 -35.499 11.5s-21 11.167 -29 18.5s-12 15.333 -12 24z" />
    <glyph glyph-name="FLW213" unicode="&#xd5;" horiz-adv-x="468" 
d="M434 594l-111 -218l-66 140l41 78h136zM170 594l268 -594h-140l-265 594h137zM134 265l73 -165l-38 -100h-139z" />
    <glyph glyph-name="FLW213" unicode="&#x425;" horiz-adv-x="468" 
d="M434 594l-111 -218l-66 140l41 78h136zM170 594l268 -594h-140l-265 594h137zM134 265l73 -165l-38 -100h-139z" />
    <glyph glyph-name="FLW214" unicode="&#xd6;" horiz-adv-x="540" 
d="M510 60v-60h-248v60h48v534h144v-534h56zM30 594h144v-534h47v-60h-65c-84 0 -126 20 -126 60v534z" />
    <glyph glyph-name="FLW214" unicode="&#x426;" horiz-adv-x="540" 
d="M510 60v-60h-248v60h48v534h144v-534h56zM30 594h144v-534h47v-60h-65c-84 0 -126 20 -126 60v534z" />
    <glyph glyph-name="FLW215" unicode="&#xd7;" 
d="M454 594v-594h-144v268h-39v58h39v268h144zM217 326v-58h-187v326h144v-268h43z" />
    <glyph glyph-name="FLW215" unicode="&#x427;" 
d="M454 594v-594h-144v268h-39v58h39v268h144zM217 326v-58h-187v326h144v-268h43z" />
    <glyph glyph-name="FLW216" unicode="&#xd8;" horiz-adv-x="764" 
d="M590 595h144v-595h-184v61h40v534zM504 61v-61h-233v61h39v534h144v-534h50zM174 61h52v-61h-77c-34.667 -0 -60 2.33301 -76 7c-28.667 8 -43 26 -43 54v534h144v-534z" />
    <glyph glyph-name="FLW216" unicode="&#x428;" horiz-adv-x="764" 
d="M590 595h144v-595h-184v61h40v534zM504 61v-61h-233v61h39v534h144v-534h50zM174 61h52v-61h-77c-34.667 -0 -60 2.33301 -76 7c-28.667 8 -43 26 -43 54v534h144v-534z" />
    <glyph glyph-name="FLW217" unicode="&#xd9;" horiz-adv-x="812" 
d="M590 595h144v-534h48v-61h-232v61h40v534zM504 61v-61h-233v61h39v534h144v-534h50zM174 61h53v-61h-70c-40 -0 -68 2.33301 -84 7c-28.667 8 -43 26 -43 54v534h144v-534z" />
    <glyph glyph-name="FLW217" unicode="&#x429;" horiz-adv-x="812" 
d="M590 595h144v-534h48v-61h-232v61h40v534zM504 61v-61h-233v61h39v534h144v-534h50zM174 61h53v-61h-70c-40 -0 -68 2.33301 -84 7c-28.667 8 -43 26 -43 54v534h144v-534z" />
    <glyph glyph-name="FLW218" unicode="&#xda;" horiz-adv-x="533" 
d="M503 268l0.000976562 -208c0 -14.667 -3.16699 -26 -9.5 -34s-15 -14 -26 -18s-24.333 -6.33301 -40 -7s-32.834 -1 -51.501 -1h-66v60h49v208h-49v58h66c12 0 25.333 -1.16699 40 -3.5s28.5 -5.83301 41.5 -10.5s23.833 -10.667 32.5 -18s13 -16 13 -26zM30.001 534v60
h193v-268h39v-58h-39v-209h39v-59h-183v534h-49z" />
    <glyph glyph-name="FLW218" unicode="&#x42a;" horiz-adv-x="533" 
d="M503 268l0.000976562 -208c0 -14.667 -3.16699 -26 -9.5 -34s-15 -14 -26 -18s-24.333 -6.33301 -40 -7s-32.834 -1 -51.501 -1h-66v60h49v208h-49v58h66c12 0 25.333 -1.16699 40 -3.5s28.5 -5.83301 41.5 -10.5s23.833 -10.667 32.5 -18s13 -16 13 -26zM30.001 534v60
h193v-268h39v-58h-39v-209h39v-59h-183v534h-49z" />
    <glyph glyph-name="FLW219" unicode="&#xdb;" horiz-adv-x="690" 
d="M454 268v-207.999c0 -14.667 -3.5 -26.167 -10.5 -34.5s-16.5 -14.333 -28.5 -18s-25.667 -5.83398 -41 -6.50098s-31 -1 -47 -1h-66v60h49v208h-49v58h66c12 0 25.333 -1.16699 40 -3.5s28.5 -5.83301 41.5 -10.5s23.833 -10.667 32.5 -18s13 -16 13 -26zM213 326.001
v-58h-39v-209h39v-59h-183v594h144v-268h39zM660 594.001v-594h-144v594h144z" />
    <glyph glyph-name="FLW219" unicode="&#x42b;" horiz-adv-x="690" 
d="M454 268v-207.999c0 -14.667 -3.5 -26.167 -10.5 -34.5s-16.5 -14.333 -28.5 -18s-25.667 -5.83398 -41 -6.50098s-31 -1 -47 -1h-66v60h49v208h-49v58h66c12 0 25.333 -1.16699 40 -3.5s28.5 -5.83301 41.5 -10.5s23.833 -10.667 32.5 -18s13 -16 13 -26zM213 326.001
v-58h-39v-209h39v-59h-183v594h144v-268h39zM660 594.001v-594h-144v594h144z" />
    <glyph glyph-name="FLW220" unicode="&#xdc;" 
d="M454 268v-207.999c0 -14.667 -3.5 -26.167 -10.5 -34.5s-16.5 -14.333 -28.5 -18s-25.667 -5.83398 -41 -6.50098s-31 -1 -47 -1h-66v60h49v208h-49v58h66c12 0 25.333 -1.16699 40 -3.5s28.5 -5.83301 41.5 -10.5s23.833 -10.667 32.5 -18s13 -16 13 -26zM213 326.001
v-58h-39v-209h39v-59h-183v594h144v-268h39z" />
    <glyph glyph-name="FLW220" unicode="&#x42c;" 
d="M454 268v-207.999c0 -14.667 -3.5 -26.167 -10.5 -34.5s-16.5 -14.333 -28.5 -18s-25.667 -5.83398 -41 -6.50098s-31 -1 -47 -1h-66v60h49v208h-49v58h66c12 0 25.333 -1.16699 40 -3.5s28.5 -5.83301 41.5 -10.5s23.833 -10.667 32.5 -18s13 -16 13 -26zM213 326.001
v-58h-39v-209h39v-59h-183v594h144v-268h39z" />
    <glyph glyph-name="FLW221" unicode="&#xdd;" 
d="M174 484h-144v110h180v-60h-36v-50zM210 0h-180v103h144v-43h36v-60zM310 534l-49 -0.000976562v60h67c39.333 0 68 -2.66699 86 -8c26.667 -8.66699 40 -26 40 -52v-474c0 -29.333 -15 -47.666 -45 -54.999c-15.333 -3.33301 -42.333 -5 -81 -5h-67v60h49v196h-49v58h49
v220zM210 312.999v-58h-53v58h53z" />
    <glyph glyph-name="FLW221" unicode="&#x42d;" 
d="M174 484h-144v110h180v-60h-36v-50zM210 0h-180v103h144v-43h36v-60zM310 534l-49 -0.000976562v60h67c39.333 0 68 -2.66699 86 -8c26.667 -8.66699 40 -26 40 -52v-474c0 -29.333 -15 -47.666 -45 -54.999c-15.333 -3.33301 -42.333 -5 -81 -5h-67v60h49v196h-49v58h49
v220zM210 312.999v-58h-53v58h53z" />
    <glyph glyph-name="FLW222" unicode="&#xde;" horiz-adv-x="699" 
d="M669 534v-474c0 -13.333 -3.5 -24 -10.5 -32s-16.333 -14 -28 -18s-25.167 -6.66699 -40.5 -8s-31.333 -2 -48 -2h-64v60h47v474h-47v60h64c44 0 74 -2.66699 90 -8c24.667 -8.66699 37 -26 37 -52zM436 60l0.00195312 -60h-65c-84 0 -126 20 -126 60v474
c0 14 3.16699 25 9.5 33s15.166 14 26.499 18s24.666 6.5 39.999 7.5s32 1.5 50 1.5h65v-58h-47v-476h47zM174.002 257v-257h-144v595h144v-280h30v-58h-30z" />
    <glyph glyph-name="FLW222" unicode="&#x42e;" horiz-adv-x="699" 
d="M669 534v-474c0 -13.333 -3.5 -24 -10.5 -32s-16.333 -14 -28 -18s-25.167 -6.66699 -40.5 -8s-31.333 -2 -48 -2h-64v60h47v474h-47v60h64c44 0 74 -2.66699 90 -8c24.667 -8.66699 37 -26 37 -52zM436 60l0.00195312 -60h-65c-84 0 -126 20 -126 60v474
c0 14 3.16699 25 9.5 33s15.166 14 26.499 18s24.666 6.5 39.999 7.5s32 1.5 50 1.5h65v-58h-47v-476h47zM174.002 257v-257h-144v595h144v-280h30v-58h-30z" />
    <glyph glyph-name="FLW223" unicode="&#xdf;" 
d="M30 326v208c0 40 42 60 126 60h70v-60h-52v-208h136v208h-44v60h188v-594h-144v288h-118c-108 0 -162 12.667 -162 38zM178 0h-137l103 252h137z" />
    <glyph glyph-name="FLW223" unicode="&#x42f;" 
d="M30 326v208c0 40 42 60 126 60h70v-60h-52v-208h136v208h-44v60h188v-594h-144v288h-118c-108 0 -162 12.667 -162 38zM178 0h-137l103 252h137z" />
    <glyph glyph-name="FLW224" unicode="&#xe0;" 
d="M454 540v-540h-144v268h-41v61h41v210h-41v55h58c84.667 0 127 -18 127 -54zM174 329h46v-61h-46v-268h-144v540c0 36 42.333 54 127 54h63v-55h-46v-210z" />
    <glyph glyph-name="FLW224" unicode="&#x430;" 
d="M454 540v-540h-144v268h-41v61h41v210h-41v55h58c84.667 0 127 -18 127 -54zM174 329h46v-61h-46v-268h-144v540c0 36 42.333 54 127 54h63v-55h-46v-210z" />
    <glyph glyph-name="FLW225" unicode="&#xe1;" 
d="M454 276v-216c0 -40 -43 -60 -129 -60h-57v60h42v216h-42v51c29.333 0 53 -0.166992 71 -0.5s30 -0.833008 36 -1.5c52.667 -6.66699 79 -23 79 -49zM268 595h186v-60h-186v60zM214 60v-60h-184v595h184v-60h-40v-208h40v-51h-40v-216h40z" />
    <glyph glyph-name="FLW225" unicode="&#x431;" 
d="M454 276v-216c0 -40 -43 -60 -129 -60h-57v60h42v216h-42v51c29.333 0 53 -0.166992 71 -0.5s30 -0.833008 36 -1.5c52.667 -6.66699 79 -23 79 -49zM268 595h186v-60h-186v60zM214 60v-60h-184v595h184v-60h-40v-208h40v-51h-40v-216h40z" />
    <glyph glyph-name="FLW226" unicode="&#xe2;" 
d="M454 248v-188c0 -40 -43 -60 -129 -60h-57v60h42v216h-42v51h42v208h-42v60h60c84 0 126 -20 126 -60v-208l-42 -30c12 0 22 -5 30 -15s12 -21.333 12 -34zM214 60v-60h-184v595h184v-60h-40v-208h40v-51h-40v-216h40z" />
    <glyph glyph-name="FLW226" unicode="&#x432;" 
d="M454 248v-188c0 -40 -43 -60 -129 -60h-57v60h42v216h-42v51h42v208h-42v60h60c84 0 126 -20 126 -60v-208l-42 -30c12 0 22 -5 30 -15s12 -21.333 12 -34zM214 60v-60h-184v595h184v-60h-40v-208h40v-51h-40v-216h40z" />
    <glyph glyph-name="FLW227" unicode="&#xe3;" horiz-adv-x="444" 
d="M414 594v-60h-146v60h146zM217 594v-60h-43v-534h-144v594h187z" />
    <glyph glyph-name="FLW227" unicode="&#x433;" horiz-adv-x="444" 
d="M414 594v-60h-146v60h146zM217 594v-60h-43v-534h-144v594h187z" />
    <glyph glyph-name="FLW228" unicode="&#xe4;" horiz-adv-x="599" 
d="M569 60v-60h-248v60h48v474h-48v60h192v-534h56zM30 0v60h59v474c0 13.333 3.5 24 10.5 32s16.333 14 28 18s25 6.66699 40 8s30.833 2 47.5 2h65v-60h-47v-474h47v-60h-250z" />
    <glyph glyph-name="FLW228" unicode="&#x434;" horiz-adv-x="599" 
d="M569 60v-60h-248v60h48v474h-48v60h192v-534h56zM30 0v60h59v474c0 13.333 3.5 24 10.5 32s16.333 14 28 18s25 6.66699 40 8s30.833 2 47.5 2h65v-60h-47v-474h47v-60h-250z" />
    <glyph glyph-name="FLW229" unicode="&#xe5;" horiz-adv-x="444" 
d="M414 594v-60h-146v60h146zM321 326v-58h-53v58h53zM217 594v-60h-43v-208h43v-58h-43v-208h43v-60h-187v594h187zM414 60v-60h-146v60h146z" />
    <glyph glyph-name="FLW229" unicode="&#x435;" horiz-adv-x="444" 
d="M414 594v-60h-146v60h146zM321 326v-58h-53v58h53zM217 594v-60h-43v-208h43v-58h-43v-208h43v-60h-187v594h187zM414 60v-60h-146v60h146z" />
    <glyph glyph-name="FLW230" unicode="&#xe6;" horiz-adv-x="788" 
d="M396 154l-359 441h156l202 -252l203 252h155zM395 407l-70 87v101h138v-106zM580 310l178 -310h-163l-112 195zM325 0v172l70 -85l68 84v-171h-138zM191 0h-161l179 309l94 -114z" />
    <glyph glyph-name="FLW230" unicode="&#x436;" horiz-adv-x="788" 
d="M396 154l-359 441h156l202 -252l203 252h155zM395 407l-70 87v101h138v-106zM580 310l178 -310h-163l-112 195zM325 0v172l70 -85l68 84v-171h-138zM191 0h-161l179 309l94 -114z" />
    <glyph glyph-name="FLW231" unicode="&#xe7;" 
d="M454 248v-188c0 -40 -43 -60 -129 -60h-57v60h42v216h-42v51h42v208h-42v60h60c84 0 126 -20 126 -60v-208l-40 -30c11.333 0 20.833 -5.16699 28.5 -15.5s11.5 -21.5 11.5 -33.5zM214 60v-60h-184v60h184zM214 276h-40v51h40v-51zM214 595v-60h-184v60h184z" />
    <glyph glyph-name="FLW231" unicode="&#x437;" 
d="M454 248v-188c0 -40 -43 -60 -129 -60h-57v60h42v216h-42v51h42v208h-42v60h60c84 0 126 -20 126 -60v-208l-40 -30c11.333 0 20.833 -5.16699 28.5 -15.5s11.5 -21.5 11.5 -33.5zM214 60v-60h-184v60h184zM214 276h-40v51h40v-51zM214 595v-60h-184v60h184z" />
    <glyph glyph-name="FLW232" unicode="&#xe8;" 
d="M174 427l-144 -270v437h144v-167zM178 0h-148v60l276 534h148zM454 0h-144v192l144 298v-490z" />
    <glyph glyph-name="FLW232" unicode="&#x438;" 
d="M174 427l-144 -270v437h144v-167zM178 0h-148v60l276 534h148zM454 0h-144v192l144 298v-490z" />
    <glyph glyph-name="FLW233" unicode="&#xe9;" 
d="M174 427l-144 -270v437h144v-167zM178 0h-148v60l276 534h148zM454 0h-144v192l144 298v-490zM206 635h85l-85 -166v166z" />
    <glyph glyph-name="FLW233" unicode="&#x439;" 
d="M174 427l-144 -270v437h144v-167zM178 0h-148v60l276 534h148zM454 0h-144v192l144 298v-490zM206 635h85l-85 -166v166z" />
    <glyph glyph-name="FLW234" unicode="&#xea;" horiz-adv-x="499" 
d="M306 594h157l-433 -542v196zM174 594v-105l-144 -176v281h144zM291 310l178 -310h-163l-112 195zM30 0l144 171v-171h-144z" />
    <glyph glyph-name="FLW234" unicode="&#x43a;" horiz-adv-x="499" 
d="M306 594h157l-433 -542v196zM174 594v-105l-144 -176v281h144zM291 310l178 -310h-163l-112 195zM30 0l144 171v-171h-144z" />
    <glyph glyph-name="FLW235" unicode="&#xeb;" horiz-adv-x="476" 
d="M216 210l-44 -210h-142l112 497zM303 0l-129 594h138l134 -594h-143z" />
    <glyph glyph-name="FLW235" unicode="&#x43b;" horiz-adv-x="476" 
d="M216 210l-44 -210h-142l112 497zM303 0l-129 594h138l134 -594h-143z" />
    <glyph glyph-name="FLW236" unicode="&#xec;" horiz-adv-x="764" 
d="M734 594v-594h-144v305l96 289h48zM503 594h140l-165 -530l-77 208zM248 594l210 -594h-151l-110 357c-4.66699 16.667 -14 44.667 -28 84l-53 153h132zM174 290v-290h-144v594h46z" />
    <glyph glyph-name="FLW236" unicode="&#x43c;" horiz-adv-x="764" 
d="M734 594v-594h-144v305l96 289h48zM503 594h140l-165 -530l-77 208zM248 594l210 -594h-151l-110 357c-4.66699 16.667 -14 44.667 -28 84l-53 153h132zM174 290v-290h-144v594h46z" />
    <glyph glyph-name="FLW237" unicode="&#xed;" 
d="M454 594v-594h-144v268h-39v58h39v268h144zM217 326v-58h-43v-268h-144v594h144v-268h43z" />
    <glyph glyph-name="FLW237" unicode="&#x43d;" 
d="M454 594v-594h-144v268h-39v58h39v268h144zM217 326v-58h-43v-268h-144v594h144v-268h43z" />
    <glyph glyph-name="FLW238" unicode="&#xee;" 
d="M454 534v-474c0 -13.333 -3.5 -24 -10.5 -32s-16.333 -14 -28 -18s-25.167 -6.66699 -40.5 -8s-31.333 -2 -48 -2h-64v60h47v474h-47v60h64c44 0 74 -2.66699 90 -8c24.667 -8.66699 37 -26 37 -52zM221 60l0.00195312 -60h-65c-84 0 -126 20 -126 60v474
c0 14 3.16699 25 9.5 33s15.166 14 26.499 18s24.666 6.5 39.999 7.5s32 1.5 50 1.5h65v-58h-47v-476h47z" />
    <glyph glyph-name="FLW238" unicode="&#x43e;" 
d="M454 534v-474c0 -13.333 -3.5 -24 -10.5 -32s-16.333 -14 -28 -18s-25.167 -6.66699 -40.5 -8s-31.333 -2 -48 -2h-64v60h47v474h-47v60h64c44 0 74 -2.66699 90 -8c24.667 -8.66699 37 -26 37 -52zM221 60l0.00195312 -60h-65c-84 0 -126 20 -126 60v474
c0 14 3.16699 25 9.5 33s15.166 14 26.499 18s24.666 6.5 39.999 7.5s32 1.5 50 1.5h65v-58h-47v-476h47z" />
    <glyph glyph-name="FLW239" unicode="&#xef;" 
d="M454 594v-594h-144v534h-44v60h188zM30 594h186v-60h-42v-534h-144v594z" />
    <glyph glyph-name="FLW239" unicode="&#x43f;" 
d="M454 594v-594h-144v534h-44v60h188zM30 594h186v-60h-42v-534h-144v594z" />
    <glyph glyph-name="FLW240" unicode="&#xf0;" 
d="M454 534l0.000976562 -208c0 -9.33301 -4.66699 -17.5 -14 -24.5s-20.833 -13 -34.5 -18s-27.667 -8.83301 -42 -11.5s-26.5 -4 -36.5 -4h-66v58h49v208h-49v60h66c47.333 0 77.666 -2.33301 90.999 -7c24 -8 36 -25.667 36 -53zM174.001 326h39v-58h-39v-268h-144v594
h183v-59h-39v-209z" />
    <glyph glyph-name="FLW240" unicode="&#x440;" 
d="M454 534l0.000976562 -208c0 -9.33301 -4.66699 -17.5 -14 -24.5s-20.833 -13 -34.5 -18s-27.667 -8.83301 -42 -11.5s-26.5 -4 -36.5 -4h-66v58h49v208h-49v60h66c47.333 0 77.666 -2.33301 90.999 -7c24 -8 36 -25.667 36 -53zM174.001 326h39v-58h-39v-268h-144v594
h183v-59h-39v-209z" />
    <glyph glyph-name="FLW241" unicode="&#xf1;" horiz-adv-x="394" 
d="M364 594v-60h-90v60h90zM218 60v-60h-61c-84.667 0 -127 20 -127 60v474c0 40 42.333 60 127 60h61v-60h-44v-474h44zM364 60v-60h-90v60h90z" />
    <glyph glyph-name="FLW241" unicode="&#x441;" horiz-adv-x="394" 
d="M364 594v-60h-90v60h90zM218 60v-60h-61c-84.667 0 -127 20 -127 60v474c0 40 42.333 60 127 60h61v-60h-44v-474h44zM364 60v-60h-90v60h90z" />
    <glyph glyph-name="FLW242" unicode="&#xf2;" horiz-adv-x="403" 
d="M310 594h63v-60h-63v60zM30 594h63v-60h-63v60zM130 594h144v-594h-144v594z" />
    <glyph glyph-name="FLW242" unicode="&#x442;" horiz-adv-x="403" 
d="M310 594h63v-60h-63v60zM30 594h63v-60h-63v60zM130 594h144v-594h-144v594z" />
    <glyph glyph-name="FLW243" unicode="&#xf3;" 
d="M454 594v-534c0 -40 -42 -60 -126 -60h-56v60h38v208h-42v58h42v268h144zM174 326h40.999v-58h-58c-10 0 -22.333 1.16699 -37 3.5s-28.667 6 -42 11s-24.666 11 -33.999 18s-14 15.5 -14 25.5v268h144v-268zM29.999 60h198v-60h-198v60z" />
    <glyph glyph-name="FLW243" unicode="&#x443;" 
d="M454 594v-534c0 -40 -42 -60 -126 -60h-56v60h38v208h-42v58h42v268h144zM174 326h40.999v-58h-58c-10 0 -22.333 1.16699 -37 3.5s-28.667 6 -42 11s-24.666 11 -33.999 18s-14 15.5 -14 25.5v268h144v-268zM29.999 60h198v-60h-198v60z" />
    <glyph glyph-name="FLW244" unicode="&#xf4;" horiz-adv-x="658" 
d="M628 534l-0.000976562 -208c0 -8.66699 -4 -16.667 -12 -24s-17.5 -13.5 -28.5 -18.5s-22.667 -8.83301 -35 -11.5s-23.166 -4 -32.499 -4h-56v58h42v208h-42v60h56c42 0 68 -2.33301 78 -7c20 -8 30 -25.667 30 -53zM234.999 268v58h33v208h-33v60h188v-60h-33v-208h33
v-58h-33v-268h-122v268h-33zM29.999 326l-0.000976562 208.001c0 29.333 9 46.666 27 51.999s45 8 81 8h56v-60h-42v-208h42v-58h-56c-8.66699 0 -19.167 1.33301 -31.5 4s-24.166 6.5 -35.499 11.5s-21 11.167 -29 18.5s-12 15.333 -12 24z" />
    <glyph glyph-name="FLW244" unicode="&#x444;" horiz-adv-x="658" 
d="M628 534l-0.000976562 -208c0 -8.66699 -4 -16.667 -12 -24s-17.5 -13.5 -28.5 -18.5s-22.667 -8.83301 -35 -11.5s-23.166 -4 -32.499 -4h-56v58h42v208h-42v60h56c42 0 68 -2.33301 78 -7c20 -8 30 -25.667 30 -53zM234.999 268v58h33v208h-33v60h188v-60h-33v-208h33
v-58h-33v-268h-122v268h-33zM29.999 326l-0.000976562 208.001c0 29.333 9 46.666 27 51.999s45 8 81 8h56v-60h-42v-208h42v-58h-56c-8.66699 0 -19.167 1.33301 -31.5 4s-24.166 6.5 -35.499 11.5s-21 11.167 -29 18.5s-12 15.333 -12 24z" />
    <glyph glyph-name="FLW245" unicode="&#xf5;" horiz-adv-x="468" 
d="M434 594l-111 -218l-66 140l41 78h136zM170 594l268 -594h-140l-265 594h137zM134 265l73 -165l-38 -100h-139z" />
    <glyph glyph-name="FLW245" unicode="&#x445;" horiz-adv-x="468" 
d="M434 594l-111 -218l-66 140l41 78h136zM170 594l268 -594h-140l-265 594h137zM134 265l73 -165l-38 -100h-139z" />
    <glyph glyph-name="FLW246" unicode="&#xf6;" horiz-adv-x="540" 
d="M510 60v-60h-248v60h48v534h144v-534h56zM30 594h144v-534h47v-60h-65c-84 0 -126 20 -126 60v534z" />
    <glyph glyph-name="FLW246" unicode="&#x446;" horiz-adv-x="540" 
d="M510 60v-60h-248v60h48v534h144v-534h56zM30 594h144v-534h47v-60h-65c-84 0 -126 20 -126 60v534z" />
    <glyph glyph-name="FLW247" unicode="&#xf7;" 
d="M454 594v-594h-144v268h-39v58h39v268h144zM217 326v-58h-187v326h144v-268h43z" />
    <glyph glyph-name="FLW247" unicode="&#x447;" 
d="M454 594v-594h-144v268h-39v58h39v268h144zM217 326v-58h-187v326h144v-268h43z" />
    <glyph glyph-name="FLW248" unicode="&#xf8;" horiz-adv-x="764" 
d="M590 595h144v-595h-184v61h40v534zM504 61v-61h-233v61h39v534h144v-534h50zM174 61h52v-61h-77c-34.667 -0 -60 2.33301 -76 7c-28.667 8 -43 26 -43 54v534h144v-534z" />
    <glyph glyph-name="FLW248" unicode="&#x448;" horiz-adv-x="764" 
d="M590 595h144v-595h-184v61h40v534zM504 61v-61h-233v61h39v534h144v-534h50zM174 61h52v-61h-77c-34.667 -0 -60 2.33301 -76 7c-28.667 8 -43 26 -43 54v534h144v-534z" />
    <glyph glyph-name="FLW249" unicode="&#xf9;" horiz-adv-x="812" 
d="M590 595h144v-534h48v-61h-232v61h40v534zM504 61v-61h-233v61h39v534h144v-534h50zM174 61h53v-61h-70c-40 -0 -68 2.33301 -84 7c-28.667 8 -43 26 -43 54v534h144v-534z" />
    <glyph glyph-name="FLW249" unicode="&#x449;" horiz-adv-x="812" 
d="M590 595h144v-534h48v-61h-232v61h40v534zM504 61v-61h-233v61h39v534h144v-534h50zM174 61h53v-61h-70c-40 -0 -68 2.33301 -84 7c-28.667 8 -43 26 -43 54v534h144v-534z" />
    <glyph glyph-name="FLW250" unicode="&#xfa;" horiz-adv-x="533" 
d="M503 268l0.000976562 -208c0 -14.667 -3.16699 -26 -9.5 -34s-15 -14 -26 -18s-24.333 -6.33301 -40 -7s-32.834 -1 -51.501 -1h-66v60h49v208h-49v58h66c12 0 25.333 -1.16699 40 -3.5s28.5 -5.83301 41.5 -10.5s23.833 -10.667 32.5 -18s13 -16 13 -26zM30.001 534v60
h193v-268h39v-58h-39v-209h39v-59h-183v534h-49z" />
    <glyph glyph-name="FLW250" unicode="&#x44a;" horiz-adv-x="533" 
d="M503 268l0.000976562 -208c0 -14.667 -3.16699 -26 -9.5 -34s-15 -14 -26 -18s-24.333 -6.33301 -40 -7s-32.834 -1 -51.501 -1h-66v60h49v208h-49v58h66c12 0 25.333 -1.16699 40 -3.5s28.5 -5.83301 41.5 -10.5s23.833 -10.667 32.5 -18s13 -16 13 -26zM30.001 534v60
h193v-268h39v-58h-39v-209h39v-59h-183v534h-49z" />
    <glyph glyph-name="FLW251" unicode="&#xfb;" horiz-adv-x="690" 
d="M454 268v-207.999c0 -14.667 -3.5 -26.167 -10.5 -34.5s-16.5 -14.333 -28.5 -18s-25.667 -5.83398 -41 -6.50098s-31 -1 -47 -1h-66v60h49v208h-49v58h66c12 0 25.333 -1.16699 40 -3.5s28.5 -5.83301 41.5 -10.5s23.833 -10.667 32.5 -18s13 -16 13 -26zM213 326.001
v-58h-39v-209h39v-59h-183v594h144v-268h39zM660 594.001v-594h-144v594h144z" />
    <glyph glyph-name="FLW251" unicode="&#x44b;" horiz-adv-x="690" 
d="M454 268v-207.999c0 -14.667 -3.5 -26.167 -10.5 -34.5s-16.5 -14.333 -28.5 -18s-25.667 -5.83398 -41 -6.50098s-31 -1 -47 -1h-66v60h49v208h-49v58h66c12 0 25.333 -1.16699 40 -3.5s28.5 -5.83301 41.5 -10.5s23.833 -10.667 32.5 -18s13 -16 13 -26zM213 326.001
v-58h-39v-209h39v-59h-183v594h144v-268h39zM660 594.001v-594h-144v594h144z" />
    <glyph glyph-name="FLW252" unicode="&#xfc;" 
d="M454 268v-207.999c0 -14.667 -3.5 -26.167 -10.5 -34.5s-16.5 -14.333 -28.5 -18s-25.667 -5.83398 -41 -6.50098s-31 -1 -47 -1h-66v60h49v208h-49v58h66c12 0 25.333 -1.16699 40 -3.5s28.5 -5.83301 41.5 -10.5s23.833 -10.667 32.5 -18s13 -16 13 -26zM213 326.001
v-58h-39v-209h39v-59h-183v594h144v-268h39z" />
    <glyph glyph-name="FLW252" unicode="&#x44c;" 
d="M454 268v-207.999c0 -14.667 -3.5 -26.167 -10.5 -34.5s-16.5 -14.333 -28.5 -18s-25.667 -5.83398 -41 -6.50098s-31 -1 -47 -1h-66v60h49v208h-49v58h66c12 0 25.333 -1.16699 40 -3.5s28.5 -5.83301 41.5 -10.5s23.833 -10.667 32.5 -18s13 -16 13 -26zM213 326.001
v-58h-39v-209h39v-59h-183v594h144v-268h39z" />
    <glyph glyph-name="FLW253" unicode="&#xfd;" 
d="M174 484h-144v110h180v-60h-36v-50zM210 0h-180v103h144v-43h36v-60zM310 534l-49 -0.000976562v60h67c39.333 0 68 -2.66699 86 -8c26.667 -8.66699 40 -26 40 -52v-474c0 -29.333 -15 -47.666 -45 -54.999c-15.333 -3.33301 -42.333 -5 -81 -5h-67v60h49v196h-49v58h49
v220zM210 312.999v-58h-53v58h53z" />
    <glyph glyph-name="FLW253" unicode="&#x44d;" 
d="M174 484h-144v110h180v-60h-36v-50zM210 0h-180v103h144v-43h36v-60zM310 534l-49 -0.000976562v60h67c39.333 0 68 -2.66699 86 -8c26.667 -8.66699 40 -26 40 -52v-474c0 -29.333 -15 -47.666 -45 -54.999c-15.333 -3.33301 -42.333 -5 -81 -5h-67v60h49v196h-49v58h49
v220zM210 312.999v-58h-53v58h53z" />
    <glyph glyph-name="FLW254" unicode="&#xfe;" horiz-adv-x="699" 
d="M669 534v-474c0 -13.333 -3.5 -24 -10.5 -32s-16.333 -14 -28 -18s-25.167 -6.66699 -40.5 -8s-31.333 -2 -48 -2h-64v60h47v474h-47v60h64c44 0 74 -2.66699 90 -8c24.667 -8.66699 37 -26 37 -52zM436 60l0.00195312 -60h-65c-84 0 -126 20 -126 60v474
c0 14 3.16699 25 9.5 33s15.166 14 26.499 18s24.666 6.5 39.999 7.5s32 1.5 50 1.5h65v-58h-47v-476h47zM174.002 257v-257h-144v595h144v-280h30v-58h-30z" />
    <glyph glyph-name="FLW254" unicode="&#x44e;" horiz-adv-x="699" 
d="M669 534v-474c0 -13.333 -3.5 -24 -10.5 -32s-16.333 -14 -28 -18s-25.167 -6.66699 -40.5 -8s-31.333 -2 -48 -2h-64v60h47v474h-47v60h64c44 0 74 -2.66699 90 -8c24.667 -8.66699 37 -26 37 -52zM436 60l0.00195312 -60h-65c-84 0 -126 20 -126 60v474
c0 14 3.16699 25 9.5 33s15.166 14 26.499 18s24.666 6.5 39.999 7.5s32 1.5 50 1.5h65v-58h-47v-476h47zM174.002 257v-257h-144v595h144v-280h30v-58h-30z" />
    <glyph glyph-name="FLW255" unicode="&#xff;" 
d="M30 326v208c0 40 42 60 126 60h70v-60h-52v-208h136v208h-44v60h188v-594h-144v288h-118c-108 0 -162 12.667 -162 38zM178 0h-137l103 252h137z" />
    <glyph glyph-name="FLW255" unicode="&#x44f;" 
d="M30 326v208c0 40 42 60 126 60h70v-60h-52v-208h136v208h-44v60h188v-594h-144v288h-118c-108 0 -162 12.667 -162 38zM178 0h-137l103 252h137z" />
    <glyph glyph-name="FLW256" unicode="&#x2010;" horiz-adv-x="518" 
d="M488 358v-66h-458v66h458z" />
    <glyph glyph-name="FLW145" unicode="&#x2018;" horiz-adv-x="204" 
d="M30 513v119.999h144v-90h-76v-30h40v-39h-63c-18 0 -30 2.33301 -36 7s-9 15.334 -9 32.001z" />
    <glyph glyph-name="FLW146" unicode="&#x2019;" horiz-adv-x="204" 
d="M174 633v-120.001c0 -17.333 -3 -28.166 -9 -32.499s-18.333 -6.5 -37 -6.5h-62v39h39v30h-75v90h144z" />
    <glyph glyph-name="FLW257" unicode="&#x201b;" horiz-adv-x="199" 
d="M199 633v-120.001c0 -17.333 -3.16699 -28.166 -9.5 -32.499s-18.5 -6.5 -36.5 -6.5h-62v39h39v30h-75v90h144z" />
    <glyph glyph-name="FLW147" unicode="&#x201c;" horiz-adv-x="414" 
d="M384 577v-90.001h-144v120c0 16.667 3.33301 27.334 10 32.001s18.667 7 36 7h63v-39h-40v-30h75zM174 576.999v-90.001h-144v120c0 16.667 3.33301 27.334 10 32.001s18.667 7 36 7h63v-39h-40v-30h75z" />
    <glyph glyph-name="FLW148" unicode="&#x201d;" horiz-adv-x="414" 
d="M384 633v-120.001c0 -17.333 -3 -28.166 -9 -32.499s-18.333 -6.5 -37 -6.5h-62v39h39v30h-75v90h144zM174 632.999v-120.001c0 -17.333 -3 -28.166 -9 -32.499s-18.333 -6.5 -37 -6.5h-62v39h39v30h-75v90h144z" />
    <glyph glyph-name="FLW133" unicode="&#x2026;" horiz-adv-x="654" 
d="M134 92v-92h-104v92h104zM372 92v-92h-104v92h104zM624 92v-92h-104v92h104z" />
    <glyph glyph-name="FLW258" unicode="&#xf101;" horiz-adv-x="502" 
d="M502 358v-66h-458v66h458z" />
    </font>
</defs>
</svg>
